<svg width="66" height="56" viewBox="0 0 66 56" fill="none" xmlns="http://www.w3.org/2000/svg">
<g clip-path="url(#clip0_53_6)">
<path d="M37.0555 16.87L35.8156 15.87C35.6218 15.7043 35.3739 15.626 35.1258 15.6522C34.8777 15.6784 34.6494 15.807 34.4905 16.01L17.3304 36.83L17.5955 37.14L21.8453 33C21.7036 32.9398 21.5864 32.8291 21.5141 32.6871C21.4417 32.5451 21.4187 32.3807 21.449 32.2227C21.4794 32.0646 21.5613 31.9227 21.6803 31.8218C21.7994 31.7208 21.9482 31.6671 22.1008 31.67C22.2385 31.67 22.3725 31.7166 22.4832 31.803C22.594 31.8894 22.6756 32.011 22.716 32.15L28.3193 26.66C28.4051 26.587 28.512 26.5472 28.6222 26.5472C28.7324 26.5472 28.8393 26.587 28.9251 26.66L29.209 26.88C29.3051 26.9528 29.4235 26.9849 29.5408 26.9701C29.6582 26.9553 29.766 26.8946 29.8432 26.8L37.1691 18.12C37.247 18.0339 37.3064 17.931 37.3433 17.8184C37.3802 17.7058 37.3937 17.5862 37.3829 17.4676C37.3721 17.349 37.3373 17.2343 37.2808 17.1312C37.2243 17.028 37.1475 16.939 37.0555 16.87Z" fill="#303030"/>
<path d="M45.1198 22.73C41.3645 25.553 37.1576 27.6364 32.7016 28.88C28.2791 30.0683 23.7536 30.7786 19.1951 31C19.2869 31.7102 19.4519 32.4077 19.6872 33.08C22.2617 35.54 41.6461 31.34 45.4321 26.48C46.2366 25.47 45.1198 22.73 45.1198 22.73ZM22.1008 33C21.9735 33 21.8491 32.9601 21.7433 32.8854C21.6374 32.8107 21.5549 32.7045 21.5062 32.5802C21.4575 32.456 21.4447 32.3192 21.4696 32.1873C21.4944 32.0554 21.5557 31.9342 21.6457 31.8391C21.7357 31.744 21.8504 31.6793 21.9753 31.653C22.1001 31.6268 22.2295 31.6403 22.3471 31.6917C22.4647 31.7432 22.5653 31.8304 22.636 31.9422C22.7067 32.054 22.7445 32.1855 22.7445 32.32C22.7457 32.4097 22.73 32.4987 22.6981 32.5818C22.6662 32.6649 22.6188 32.7404 22.5588 32.8038C22.4988 32.8672 22.4273 32.9173 22.3486 32.951C22.27 32.9847 22.1857 33.0013 22.1008 33Z" fill="#303030"/>
<path d="M3.78682 21.2899L3.93826 20.5999L6.39917 21.1899C6.6022 21.5861 6.72773 22.0214 6.7683 22.4699C6.81528 22.945 6.78648 23.425 6.68312 23.8899C6.5606 24.5352 6.27991 25.1352 5.86913 25.6299C5.4783 26.097 4.97437 26.4428 4.41151 26.6299C3.8314 26.8189 3.21438 26.8431 2.62262 26.6999C2.02957 26.5646 1.48291 26.2603 1.04197 25.8199C0.607777 25.3969 0.295995 24.8526 0.142789 24.2499C-0.02717 23.5954 -0.02717 22.9045 0.142789 22.2499C0.244517 21.76 0.427144 21.2929 0.682295 20.8699C0.923785 20.4853 1.24816 20.1665 1.6288 19.9399L1.96954 20.4899C1.64328 20.7016 1.36323 20.9839 1.14786 21.3183C0.932497 21.6527 0.78672 22.0316 0.720155 22.4299C0.602777 22.9473 0.612551 23.4877 0.748551 23.9999C0.875732 24.4863 1.128 24.9259 1.47736 25.2699C1.83644 25.6367 2.2857 25.8896 2.77406 25.9999C3.24762 26.1404 3.74865 26.1404 4.22221 25.9999C4.67586 25.8417 5.08331 25.5628 5.40534 25.1899C5.73628 24.7873 5.96434 24.3019 6.06789 23.7799C6.22362 23.1468 6.18383 22.4776 5.95431 21.8699L3.78682 21.2899Z" fill="#303030"/>
<path d="M9.1432 14.9999L6.93785 18.1099L7.88435 19.8999L7.44896 20.5199L3.9469 13.7699L4.3539 13.1799L11.4811 14.7999L11.0362 15.4199L9.1432 14.9999ZM8.5185 14.8399L4.7325 13.9399L6.6255 17.5299L8.5185 14.8399Z" fill="#303030"/>
<path d="M8.51849 8.5501L9.0864 8.1001L12.6926 13.2001L15.6646 10.8501L16.0243 11.3601L12.4938 14.1501L8.51849 8.5501Z" fill="#303030"/>
<path d="M14.4815 4.38008L15.1157 4.08008L17.6144 9.86008L20.9934 8.24008L21.2395 8.82008L17.2264 10.7501L14.4815 4.38008Z" fill="#303030"/>
<path d="M26.9564 6.68003L27.0983 7.31003L22.5362 8.44003L21.0218 1.62003L25.4514 0.530029L25.5839 1.15003L21.7979 2.08003L22.3374 4.50003L25.6691 3.67003L25.8111 4.29003L22.4699 5.11003L23.0378 7.64003L26.9564 6.68003Z" fill="#303030"/>
<path d="M33.4588 6.92997L31.8782 4.72997C31.7016 4.74029 31.5247 4.74029 31.3481 4.72997L29.5687 4.78997L29.635 7.00997H28.9346L28.7169 0.00996866L31.2346 -3.1339e-05C31.9464 -0.0694894 32.6582 0.132721 33.2411 0.569969C33.4868 0.778962 33.6843 1.04418 33.8187 1.3456C33.9532 1.64702 34.0211 1.97678 34.0173 2.30997C34.0449 2.80416 33.9222 3.29473 33.6671 3.70997C33.3951 4.10853 33.0108 4.40603 32.5691 4.55997L34.2255 6.89997L33.4588 6.92997ZM32.7963 3.63997C32.9664 3.47531 33.0984 3.27154 33.1821 3.04439C33.2658 2.81725 33.299 2.57281 33.279 2.32997C33.2839 2.08584 33.2361 1.84374 33.1394 1.62198C33.0426 1.40022 32.8994 1.20461 32.7206 1.04997C32.2843 0.737448 31.7597 0.592707 31.2346 0.639969L29.4362 0.709969L29.5498 4.20997L31.3103 4.14997C31.8471 4.17096 32.3736 3.99026 32.7963 3.63997Z" fill="#303030"/>
<path d="M38.4658 5.07L38.1251 7.46L37.4341 7.35L37.7843 5L35.8251 0L36.5633 0.12L38.2387 4.38L41.0782 0.85L41.7407 1L38.4658 5.07Z" fill="#303030"/>
<path d="M47.8268 4.64993L48.6502 5.77993L48.2906 6.07993L47.4671 4.91993L46.9465 6.22993L46.549 6.04993L47.079 4.73993L45.7161 4.92993V4.44993L47.0601 4.28993L46.2272 3.15993L46.5963 2.85993L47.3251 3.99993L47.8362 2.67993L48.2432 2.85993L47.7605 4.19993L49.1235 3.99993V4.48993L47.8268 4.64993Z" fill="#303030"/>
<path d="M50.9881 12.7099C50.7645 12.3458 50.6251 11.9314 50.5811 11.4999L51.1395 11.2399C51.1814 11.6363 51.3041 12.0184 51.4992 12.3599C51.7106 12.7428 51.9865 13.0817 52.3132 13.3599C52.6505 13.7012 53.081 13.9216 53.5436 13.9899C53.7107 14.0063 53.8791 13.9793 54.0342 13.9114C54.1892 13.8434 54.3262 13.7365 54.4333 13.5999C54.5118 13.5084 54.5717 13.4008 54.6091 13.2838C54.6466 13.1669 54.6608 13.043 54.651 12.9199C54.6197 12.6762 54.5425 12.4416 54.4239 12.2299C54.246 11.923 54.0533 11.6259 53.8465 11.3399C53.5945 10.9911 53.3667 10.6235 53.165 10.2399C53.0108 9.95284 52.9263 9.6299 52.9189 9.29992C52.9183 8.92934 53.0501 8.57218 53.2881 8.29992C53.4943 8.03604 53.7665 7.83857 54.0737 7.72992C54.4168 7.62518 54.7811 7.62518 55.1243 7.72992C55.5664 7.88269 55.9752 8.12751 56.3263 8.44992C56.6177 8.70599 56.8755 9.00192 57.093 9.32992C57.2941 9.63408 57.4445 9.97227 57.5378 10.3299L56.9983 10.6299C56.9042 10.2966 56.7639 9.97979 56.5819 9.68992C56.4006 9.43106 56.1873 9.199 55.9477 8.99992C55.6154 8.66016 55.1862 8.44575 54.7267 8.38992C54.5579 8.375 54.3882 8.40466 54.2329 8.47623C54.0776 8.5478 53.9415 8.65903 53.837 8.79992C53.7565 8.89 53.6954 8.99741 53.6578 9.11477C53.6202 9.23214 53.6071 9.35669 53.6193 9.47992C53.6415 9.73209 53.7193 9.97526 53.8465 10.1899C53.979 10.4199 54.1683 10.7199 54.4239 11.0799C54.6772 11.4207 54.905 11.7818 55.1053 12.1599C55.2628 12.4461 55.3507 12.7691 55.3609 13.0999C55.3616 13.4705 55.2297 13.8277 54.9918 14.0999C54.7847 14.3674 54.5085 14.5655 54.1967 14.6699C53.8541 14.7792 53.4886 14.7792 53.1461 14.6699C52.7009 14.5176 52.2889 14.2728 51.9346 13.9499C51.5525 13.5986 51.2321 13.1788 50.9881 12.7099Z" fill="#303030"/>
<path d="M60.5099 14.17L59.1753 12.17L59.6675 11.8L62.7436 16.44L62.2514 16.81L60.9169 14.81L55.9761 18.46L55.5786 17.85L60.5099 14.17Z" fill="#303030"/>
<path d="M58.3897 22.39C58.5587 21.7856 58.887 21.2445 59.3362 20.83C59.7757 20.4141 60.3111 20.1279 60.8885 20C61.4771 19.8572 62.091 19.8814 62.6679 20.07C63.2248 20.2645 63.724 20.6092 64.1161 21.07C64.5238 21.5656 64.8012 22.1656 64.9206 22.81C65.0774 23.4426 65.0774 24.1073 64.9206 24.74C64.747 25.3421 64.4195 25.8819 63.9741 26.3C63.5225 26.727 62.9739 27.0233 62.3818 27.16C61.7897 27.2967 61.1741 27.2691 60.5951 27.08C60.034 26.8949 59.5326 26.5487 59.1469 26.08C58.741 25.587 58.4637 24.9907 58.3424 24.35C58.1978 23.7033 58.2141 23.028 58.3897 22.39ZM59.6297 25.57C59.9457 25.9502 60.3552 26.2306 60.8128 26.38C61.2844 26.5245 61.7829 26.5417 62.2625 26.4298C62.742 26.318 63.1874 26.0808 63.5576 25.74C63.907 25.4004 64.165 24.9691 64.3054 24.49C64.4373 23.9841 64.4503 23.4517 64.3431 22.9393C64.2358 22.4269 64.0117 21.95 63.6901 21.55C63.3602 21.1679 62.9382 20.8879 62.4692 20.74C61.9916 20.606 61.4891 20.606 61.0115 20.74C60.5296 20.8377 60.0835 21.0768 59.7243 21.43C59.3717 21.7708 59.1133 22.2062 58.9766 22.69C58.8481 23.1977 58.8481 23.7322 58.9766 24.24C59.0802 24.7361 59.3054 25.1947 59.6297 25.57Z" fill="#303030"/>
<path d="M57.6704 33.9999L60.1218 32.9999C60.1218 32.8199 60.1786 32.6399 60.2259 32.4499L60.6897 30.6399L58.6831 30.0899L58.863 29.3799L65.2613 31.1899L64.6177 33.7199C64.4727 34.4581 64.0834 35.1176 63.5198 35.5799C63.2607 35.7699 62.9636 35.8941 62.6517 35.9427C62.3397 35.9912 62.0213 35.9629 61.7214 35.8599C61.2647 35.7552 60.8553 35.4891 60.5611 35.1055C60.2668 34.7218 60.1052 34.2437 60.1029 33.7499L57.4905 34.7499L57.6704 33.9999ZM60.8412 34.2799C60.952 34.4924 61.1024 34.679 61.2833 34.8286C61.4642 34.9781 61.6719 35.0875 61.8938 35.1501C62.1157 35.2126 62.3473 35.2272 62.5747 35.1928C62.8021 35.1584 63.0205 35.0758 63.2169 34.9499C63.6346 34.5954 63.9197 34.0957 64.0214 33.5399L64.4757 31.7399L61.2671 30.8299L60.8128 32.6299C60.6381 33.1663 60.6482 33.7506 60.8412 34.2799Z" fill="#303030"/>
<path d="M54.2724 40.4401L53.7897 40.0501L56.6292 36.1001L61.9107 40.3301L59.1659 44.1601L58.6831 43.7701L61.0021 40.5401L59.1091 39.0301L57.0362 41.9201L56.563 41.5401L58.6831 38.6501L56.7239 37.0801L54.2724 40.4401Z" fill="#303030"/>
<path d="M52.0576 48.4099L50.7041 48.4899V48.0099L52.0576 47.9999L51.3288 46.8099L51.6979 46.5599L52.4173 47.7599L53.0041 46.4199L53.4111 46.6499L52.7675 47.9099L54.121 47.8299V48.3199H52.7485L53.4774 49.5099L53.1082 49.7599L52.3889 48.5599L51.7642 49.8599L51.3667 49.6199L52.0576 48.4099Z" fill="#303030"/>
<path d="M39.7531 47.6099L40.8984 48.2799C41.0904 47.8902 41.3584 47.5479 41.6846 47.2756C42.0109 47.0033 42.3881 46.8071 42.7914 46.6999C43.1676 46.576 43.5632 46.5318 43.9556 46.5699C44.296 46.5975 44.6231 46.7219 44.9021 46.9299C45.1543 47.1308 45.3398 47.4108 45.4321 47.7299C45.5462 48.1247 45.5261 48.5491 45.3753 48.9299C45.1378 49.4473 44.8176 49.9175 44.4288 50.3199C44.7409 50.4971 45.0303 50.7155 45.2901 50.9699C45.4686 51.1648 45.6015 51.4011 45.6782 51.6599C45.7267 51.8617 45.7297 52.0726 45.687 52.2759C45.6442 52.4791 45.5569 52.6688 45.4321 52.8299C45.1794 53.2146 44.8024 53.4884 44.372 53.5999C43.9941 53.7522 43.5763 53.7522 43.1984 53.5999C43.0303 53.5235 42.8813 53.407 42.7631 53.2595C42.6448 53.1121 42.5606 52.9376 42.5169 52.7499C42.4177 52.4198 42.4414 52.0622 42.5832 51.7499C42.8004 51.2953 43.0848 50.8801 43.4255 50.5199L41.1445 49.1799C41.0574 49.6508 41.0383 50.1329 41.0877 50.6099H40.5103C40.4714 50.0225 40.5356 49.4326 40.6996 48.8699L39.507 48.1699L39.7531 47.6099ZM41.4 48.6099L43.9083 50.0799C44.237 49.7483 44.5091 49.3592 44.7128 48.9299C44.8168 48.64 44.8168 48.3199 44.7128 48.0299C44.6699 47.8567 44.5868 47.6974 44.4712 47.5665C44.3555 47.4356 44.2109 47.3371 44.0502 47.2799C43.6573 47.1397 43.2316 47.1397 42.8387 47.2799C42.5176 47.3694 42.219 47.5322 41.9639 47.7568C41.7088 47.9814 41.5034 48.2624 41.3622 48.5799L41.4 48.6099ZM44.9589 52.6099C45.0207 52.4994 45.0595 52.3762 45.0725 52.2486C45.0856 52.1209 45.0727 51.9918 45.0346 51.8699C44.9766 51.6724 44.8724 51.4936 44.7317 51.3499C44.4908 51.1352 44.2272 50.9506 43.9461 50.7999C43.6591 51.0997 43.408 51.4356 43.1984 51.7999C43.084 52.0271 43.0568 52.2921 43.1227 52.5399C43.1527 52.6543 43.2053 52.7607 43.2771 52.8521C43.3489 52.9434 43.4382 53.0177 43.5391 53.0699C43.7801 53.1659 44.0459 53.1659 44.2869 53.0699C44.5442 52.9974 44.7689 52.8309 44.921 52.5999L44.9589 52.6099Z" fill="#303030"/>
<path d="M28.2152 55.3201L28.3477 48.3201H29.0197L28.9156 53.9201L31.6037 49.2601H31.935L34.4527 54.0001L34.5473 48.4301H35.2193L35.0963 55.4301H34.5189L31.7362 50.2001L28.7926 55.3301L28.2152 55.3201Z" fill="#303030"/>
<path d="M24.9214 48.0001C25.3542 48.4359 25.6639 48.9902 25.816 49.6012C25.9681 50.2121 25.9566 50.8557 25.7827 51.4601C25.6272 52.079 25.3165 52.6421 24.8835 53.0901C24.4627 53.5271 23.935 53.8318 23.3597 53.9701C22.7527 54.1148 22.1208 54.0941 21.5234 53.9101C20.9281 53.7565 20.3804 53.443 19.9333 53.0001C19.5069 52.5698 19.2022 52.0228 19.0531 51.4201C18.9075 50.7971 18.9183 50.1447 19.0842 49.5274C19.2502 48.9101 19.5657 48.3492 19.9996 47.9001C20.4129 47.4642 20.9293 47.1534 21.495 47.0001C22.0989 46.8558 22.7276 46.8765 23.3218 47.0601C23.9233 47.2212 24.4746 47.5452 24.9214 48.0001ZM21.6938 47.6501C21.2308 47.764 20.8076 48.0135 20.4728 48.3701C20.1242 48.737 19.8757 49.1965 19.7535 49.7001C19.6215 50.2006 19.6215 50.7296 19.7535 51.2301C19.8651 51.717 20.1046 52.1607 20.4444 52.5101C20.8008 52.8783 21.2408 53.1435 21.7222 53.2801C22.2035 53.4096 22.7079 53.4096 23.1893 53.2801C23.6526 53.1597 24.0773 52.9112 24.4197 52.5601C24.7665 52.1917 25.0147 51.7328 25.1391 51.2301C25.2714 50.7263 25.2714 50.1939 25.1391 49.6901C25.0179 49.205 24.7761 48.7631 24.4387 48.4101C24.0804 48.0414 23.6364 47.7792 23.1514 47.6501C22.6745 47.5108 22.1707 47.5108 21.6938 47.6501Z" fill="#303030"/>
<path d="M14.5288 43L14.7843 45.75C14.9467 45.8233 15.1047 45.9068 15.2576 46L16.8004 46.94L17.8415 45L18.4568 45.37L15.144 51.4L12.986 50.09C12.3481 49.7515 11.8449 49.1844 11.5662 48.49C11.4633 48.1772 11.4286 47.8439 11.4647 47.5149C11.5007 47.1859 11.6066 46.8698 11.7745 46.59C11.9945 46.1518 12.3432 45.8008 12.7683 45.59C13.2 45.4011 13.6774 45.3626 14.1313 45.48L13.8568 42.54L14.5288 43ZM13.4498 46.16C13.2275 46.219 13.0187 46.3247 12.836 46.4708C12.6532 46.617 12.5003 46.8006 12.3863 47.0107C12.2723 47.2207 12.1996 47.4529 12.1725 47.6934C12.1455 47.9338 12.1646 48.1776 12.2288 48.41C12.4507 48.9276 12.8353 49.3481 13.3173 49.6L14.8411 50.53L16.4975 47.53L14.9736 46.6C14.5356 46.2533 13.9964 46.0799 13.4498 46.11V46.16Z" fill="#303030"/>
<path d="M8.92549 38.3101L9.35141 37.8601L12.6168 41.4101L7.88433 46.2901L4.73248 42.8501L5.16787 42.4001L7.84647 45.3101L9.46499 43.5801L7.11767 41.0001L7.57199 40.5401L9.96664 43.1401L11.7271 41.3301L8.92549 38.3101Z" fill="#303030"/>
<path d="M1.89205 34.38L2.11921 33L2.56406 33.07L2.30851 34.49L3.56735 34L3.7188 34.44L2.44102 34.9L3.49163 35.84L3.18875 36.2L2.176 35.2L1.93937 36.62L1.48505 36.53L1.75007 35.11L0.481758 35.59L0.339783 35.2L1.6081 34.73L0.557478 33.8L0.869824 33.44L1.89205 34.38Z" fill="#303030"/>
</g>
<defs>
<clipPath id="clip0_53_6">
<rect width="65.2424" height="55.46" fill="white"/>
</clipPath>
</defs>
</svg>
