<svg xmlns="http://www.w3.org/2000/svg" width="150" height="150" version="1.0" viewBox="0 0 112.5 112.5"><defs><clipPath id="b"><path d="M1.11 5.625h9.788V16H1.11Zm0 0"/></clipPath><clipPath id="c"><path d="M1.11 10h9.788v10.414H1.11Zm0 0"/></clipPath><clipPath id="d"><path d="M12 5.625h9.527v14.79H12Zm0 0"/></clipPath><clipPath id="e"><path d="M12 13h5v7.414h-5Zm0 0"/></clipPath><clipPath id="a"><path d="M0 0h63v25H0z"/></clipPath></defs><g clip-path="url(#a)" transform="translate(22 43)"><g clip-path="url(#b)"><path fill="#7c6032" fill-rule="evenodd" d="M9.5 7.066A4.894 4.894 0 0 0 6.023 5.63H1.11v4.914c0 .289.028.574.075.852.12-.141.246-.278.379-.41.359-.364.753-.672 1.18-.926V7.266h3.28a3.278 3.278 0 0 1 3.282 3.277c0 .906-.367 1.727-.965 2.316-.59.598-1.41.965-2.317.965-.261 0-.503-.031-.746-.086-.554.239-.976.75-1.093 1.364.57.23 1.187.355 1.84.355 1.355 0 2.59-.547 3.476-1.437a4.887 4.887 0 0 0 1.438-3.477A4.894 4.894 0 0 0 9.5 7.066"/></g><g clip-path="url(#c)"><path fill="#cfbda8" fill-rule="evenodd" d="M10.676 13.887c-.375.531-.84.992-1.383 1.367a3.274 3.274 0 0 1-3.27 3.48H2.746v-3.277a3.276 3.276 0 0 1 3.277-3.273c.516 0 1.008.12 1.45.343.453-.336.789-.82.925-1.379a4.965 4.965 0 0 0-2.375-.605c-1.359 0-2.59.55-3.472 1.441a4.865 4.865 0 0 0-1.442 3.473v4.918h4.914a4.916 4.916 0 0 0 4.915-4.918c0-.547-.086-1.078-.262-1.57"/></g><g clip-path="url(#d)"><path fill="#cfbda8" d="M20.883 20.379c.18-.176.402-.742.402-1.496 0-.649-.164-1.434-.66-2.227-.742-1.187-2.027-2.672-3.004-3.773.195-.293.324-.488.367-.547.219-.316.407-.848.465-1.504.098.043.203.086.32.113 1.118.305 2.028-.363 2.391-1.695.363-1.336-.094-2.375-1.203-2.68-1.117-.3-2.031.367-2.395 1.7a3.434 3.434 0 0 0-.105.644c-.043 1.063-.016 2.074-.191 2.426-.043.086-.223.3-.48.598-.263-.301-.438-.512-.481-.598-.176-.352-.149-1.363-.196-2.426a3.434 3.434 0 0 0-.105-.644c-.356-1.301-1.235-1.97-2.317-1.715l-.046-.051c-.274-.277-.215-.883-.594-.793-.38.086-.418.906-.25 1.32-.336.332-.512.801-.512 1.36 0 .27.04.554.121.859.363 1.332 1.274 2 2.395 1.695.113-.027.218-.07.316-.113.059.656.246 1.188.469 1.504.3.426 5.293 8.043 5.293 8.043Zm-1.887-10.262c-.578-.156-.52-.773-.308-1.543.21-.77.476-1.328 1.046-1.172.575.153.52.774.313 1.543-.215.778-.469 1.332-1.05 1.172Zm-5.465-1.172c-.09-.32-.148-.61-.148-.855 0-.348.12-.598.457-.688.57-.156.84.403 1.047 1.172.09.32.148.617.148.86 0 .343-.117.593-.457.683-.578.16-.836-.394-1.047-1.172Zm0 0"/></g><g clip-path="url(#e)"><path fill="#cfbda8" d="M15.75 13.113c-.945 1.075-2.105 2.438-2.8 3.543-1.075 1.715-.595 3.395-.259 3.723 0 0 2.344-3.574 3.918-5.965-.336-.512-.632-.96-.859-1.3Zm0 0"/></g><path fill="#cfbda8" d="M25.746 14.402v5.89h-3.11V5.919h5.532c1.843 0 2.765.98 2.765 2.937v1.656c0 1.188-.43 1.946-1.28 2.266.75.273 1.124.883 1.124 1.828v5.688h-3.125v-5.438c0-.3-.14-.453-.422-.453Zm0-6.375v4.203h1.64c.125 0 .223-.039.297-.125a.485.485 0 0 0 .125-.328V8.465a.417.417 0 0 0-.125-.297.358.358 0 0 0-.297-.14ZM40.362 12.433c.969.336 1.453 1.117 1.453 2.344v2.578c0 1.961-.918 2.938-2.75 2.938h-5.719V5.918h5.532c1.843 0 2.765.98 2.765 2.937v1.313c0 1.18-.43 1.933-1.28 2.265Zm-2.266-4.406h-1.64v3.844h1.64c.125 0 .223-.04.297-.125a.46.46 0 0 0 .125-.313V8.465a.417.417 0 0 0-.125-.297.358.358 0 0 0-.297-.14Zm.61 9.688v-3.22a.433.433 0 0 0-.125-.312.39.39 0 0 0-.297-.14h-1.828v4.11h1.828c.113 0 .21-.04.297-.126a.46.46 0 0 0 .125-.312ZM47.477 17.715h3.453v2.578h-6.562V5.918h6.562v2.53h-3.453v3.376h3.219v2.453h-3.22ZM56.254 14.402v5.89h-3.11V5.919h5.532c1.843 0 2.765.98 2.765 2.937v1.656c0 1.188-.43 1.946-1.281 2.266.75.273 1.125.883 1.125 1.828v5.688H58.16v-5.438c0-.3-.14-.453-.422-.453Zm0-6.375v4.203h1.64c.125 0 .223-.039.297-.125a.485.485 0 0 0 .125-.328V8.465a.417.417 0 0 0-.125-.297.358.358 0 0 0-.297-.14ZM11.84 23.884v-2.203h.626c.258 0 .46.047.61.14.155.087.234.212.234.376a.45.45 0 0 1-.141.328.893.893 0 0 1-.344.203.828.828 0 0 1 .453.203.438.438 0 0 1 .157.328.473.473 0 0 1-.094.297.581.581 0 0 1-.219.188c-.2.093-.398.14-.594.14Zm.329-1.187h.234c.207 0 .352-.047.438-.14a.503.503 0 0 0 .125-.345.36.36 0 0 0-.094-.234.426.426 0 0 0-.266-.172c-.156 0-.304.024-.437.063Zm0 .094v.937c.07.031.18.047.328.047.145 0 .274-.04.39-.125a.4.4 0 0 0 .173-.344.433.433 0 0 0-.188-.36.701.701 0 0 0-.453-.155ZM15.512 23.884l.984-2.25h.063l.984 2.25h-.36l-.25-.593h-1l-.234.593Zm.484-.718h.875l-.437-1.079ZM19.992 22.837v1.047h-.328v-2.203h.719c.226 0 .41.055.547.156a.446.446 0 0 1 .218.391c0 .156-.058.29-.171.39a.987.987 0 0 1-.47.188l.907 1.078-.39.047-.782-1.094Zm0-.109h.219c.394 0 .594-.156.594-.469 0-.05-.016-.11-.047-.172-.043-.144-.149-.238-.313-.28-.156 0-.308.015-.453.046ZM23.58 23.884v-2.203h.626c.258 0 .46.047.61.14.155.087.233.212.233.376a.45.45 0 0 1-.14.328.893.893 0 0 1-.344.203.828.828 0 0 1 .453.203.438.438 0 0 1 .156.328.473.473 0 0 1-.093.297.581.581 0 0 1-.219.188c-.2.093-.398.14-.594.14Zm.329-1.187h.234c.207 0 .352-.047.438-.14a.503.503 0 0 0 .125-.345.36.36 0 0 0-.094-.234.426.426 0 0 0-.266-.172c-.156 0-.304.024-.437.063Zm0 .094v.937c.07.031.18.047.328.047.144 0 .273-.04.39-.125a.4.4 0 0 0 .172-.344.433.433 0 0 0-.187-.36.701.701 0 0 0-.453-.155ZM27.517 23.884v-2.203h1.344l-.047.219-.61-.094c-.116 0-.234.016-.359.047v.813h.735v.125h-.735v.968l1.032-.093-.032.218ZM31.509 22.837v1.047h-.328v-2.203h.718c.227 0 .41.055.547.156a.446.446 0 0 1 .219.391c0 .156-.059.29-.172.39a.987.987 0 0 1-.469.188l.907 1.078-.391.047-.781-1.094Zm0-.109h.219c.394 0 .593-.156.593-.469 0-.05-.015-.11-.047-.172-.043-.144-.148-.238-.312-.28-.156 0-.309.015-.453.046ZM37.97 22.056c0 .106.036.2.11.281.07.086.16.157.266.22.113.062.222.132.328.202a.92.92 0 0 1 .28.235c.083.093.126.199.126.312a.6.6 0 0 1-.203.453c-.137.117-.32.172-.547.172-.23 0-.453-.047-.672-.14v-.157c.219.117.406.172.563.172.164 0 .289-.035.375-.11a.414.414 0 0 0 .14-.327.357.357 0 0 0-.11-.25.98.98 0 0 0-.265-.203c-.105-.063-.21-.118-.312-.172a.904.904 0 0 1-.266-.235.521.521 0 0 1 .063-.703c.113-.113.285-.172.515-.172.156 0 .348.04.578.11l-.03.234c-.306-.133-.56-.203-.767-.203-.117.055-.171.148-.171.281ZM41.692 22.79v1.094h-.328v-2.203h.328v.985h1v-.985h.328v2.203h-.328v-1.093ZM46.41 21.634a.96.96 0 0 1 .72.297c.187.188.28.45.28.781 0 .22-.039.414-.109.579a.984.984 0 0 1-.297.375c-.242.18-.508.265-.797.265a.954.954 0 0 1-.703-.281c-.187-.195-.281-.469-.281-.813 0-.164.023-.32.078-.468.05-.145.113-.258.188-.344a.876.876 0 0 1 .296-.219c.188-.113.395-.172.625-.172Zm-.671 1.875c.062.094.14.172.234.235a.718.718 0 0 0 .344.078.578.578 0 0 0 .328-.094.854.854 0 0 0 .25-.266c.113-.207.172-.43.172-.671 0-.29-.063-.524-.188-.704-.125-.207-.34-.312-.64-.312a.899.899 0 0 0-.5.39 1.258 1.258 0 0 0-.157.626c0 .28.051.523.157.718ZM51.101 22.26a.56.56 0 0 1-.234.484c-.156.105-.371.156-.64.156h-.282v.984h-.328v-2.203h.719c.219 0 .398.055.547.156a.499.499 0 0 1 .218.422Zm-1.156.546h.297c.102 0 .191-.02.266-.062a.376.376 0 0 0 .156-.157.593.593 0 0 0 .094-.312.503.503 0 0 0-.047-.188.447.447 0 0 0-.328-.28c-.157 0-.305.015-.438.046Zm0 0"/></g></svg>