<svg xmlns="http://www.w3.org/2000/svg" xmlns:xlink="http://www.w3.org/1999/xlink" width="1500" zoomAndPan="magnify" viewBox="0 0 1125 1124.99995" height="1500" preserveAspectRatio="xMidYMid meet" version="1.0"><defs><g/><clipPath id="6b363cc2ff"><path d="M 0.105469 45.390625 L 98.457031 45.390625 L 98.457031 145 L 0.105469 145 Z M 0.105469 45.390625 " clip-rule="nonzero"/></clipPath><clipPath id="0cf234f48b"><path d="M 0.105469 94 L 98.457031 94 L 98.457031 193.964844 L 0.105469 193.964844 Z M 0.105469 94 " clip-rule="nonzero"/></clipPath><clipPath id="e2c2bb6831"><path d="M 112 46 L 203 46 L 203 193.964844 L 112 193.964844 Z M 112 46 " clip-rule="nonzero"/></clipPath><clipPath id="52f187c139"><path d="M 112 120 L 156 120 L 156 193.964844 L 112 193.964844 Z M 112 120 " clip-rule="nonzero"/></clipPath><clipPath id="4b30acbb82"><rect x="0" width="620" y="0" height="238"/></clipPath></defs><rect x="-112.5" width="1350" fill="#ffffff" y="-112.499995" height="1349.99994" fill-opacity="1"/><rect x="-112.5" width="1350" fill="#000000" y="-112.499995" height="1349.99994" fill-opacity="1"/><g transform="matrix(1, 0, 0, 1, 232, 443)"><g clip-path="url(#4b30acbb82)"><g clip-path="url(#6b363cc2ff)"><path fill="#7c6032" d="M 84.394531 59.898438 C 75.507812 50.941406 63.089844 45.441406 49.476562 45.441406 L 0.105469 45.441406 L 0.105469 94.8125 C 0.105469 97.703125 0.386719 100.597656 0.882812 103.347656 C 2.082031 101.9375 3.351562 100.597656 4.6875 99.257812 C 8.289062 95.589844 12.238281 92.484375 16.535156 89.945312 L 16.539062 61.875 L 49.476562 61.875 C 67.671875 61.875 82.421875 76.617188 82.421875 94.8125 C 82.421875 103.910156 78.753906 112.164062 72.757812 118.089844 C 66.828125 124.082031 58.574219 127.75 49.476562 127.75 C 46.867188 127.75 44.398438 127.46875 42 126.902344 C 36.425781 129.300781 32.195312 134.453125 30.996094 140.585938 C 36.710938 142.914062 42.917969 144.183594 49.476562 144.183594 C 63.089844 144.183594 75.507812 138.683594 84.394531 129.726562 C 93.351562 120.769531 98.855469 108.496094 98.855469 94.8125 C 98.855469 81.128906 93.351562 68.855469 84.394531 59.898438 " fill-opacity="1" fill-rule="evenodd"/></g><g clip-path="url(#0cf234f48b)"><path fill="#cfbda8" d="M 96.222656 128.386719 C 92.4375 133.734375 87.757812 138.34375 82.328125 142.128906 C 82.398438 142.785156 82.398438 143.527344 82.398438 144.183594 C 82.398438 162.371094 67.671875 177.097656 49.488281 177.097656 L 16.574219 177.097656 L 16.574219 144.183594 C 16.574219 126 31.304688 111.269531 49.488281 111.269531 C 54.671875 111.269531 59.609375 112.503906 64.050781 114.726562 C 68.578125 111.351562 71.957031 106.496094 73.34375 100.902344 C 66.277344 97.035156 58.128906 94.8125 49.488281 94.8125 C 35.828125 94.8125 23.484375 100.328125 14.597656 109.296875 C 5.628906 118.183594 0.113281 130.523438 0.113281 144.183594 L 0.113281 193.554688 L 49.488281 193.554688 C 76.730469 193.554688 98.855469 171.421875 98.855469 144.183594 C 98.855469 138.671875 97.960938 133.324219 96.222656 128.386719 " fill-opacity="1" fill-rule="evenodd"/></g><g clip-path="url(#e2c2bb6831)"><path fill="#cfbda8" d="M 198.730469 193.621094 C 200.554688 191.832031 202.792969 186.132812 202.792969 178.570312 C 202.792969 172.0625 201.136719 164.179688 196.140625 156.207031 C 188.671875 144.289062 175.785156 129.394531 165.976562 118.296875 C 167.917969 115.367188 169.226562 113.402344 169.640625 112.8125 C 171.863281 109.644531 173.746094 104.289062 174.328125 97.703125 C 175.324219 98.160156 176.386719 98.558594 177.527344 98.867188 C 188.761719 101.921875 197.917969 95.207031 201.5625 81.808594 C 205.203125 68.410156 200.625 57.957031 189.476562 54.921875 C 178.238281 51.871094 169.085938 58.585938 165.4375 71.984375 C 164.828125 74.238281 164.441406 76.738281 164.367188 78.4375 C 163.921875 89.101562 164.191406 99.28125 162.425781 102.820312 C 161.992188 103.6875 160.222656 105.816406 157.601562 108.820312 C 154.976562 105.8125 153.207031 103.6875 152.773438 102.820312 C 151.007812 99.28125 151.28125 89.101562 150.832031 78.4375 C 150.761719 76.738281 150.375 74.238281 149.761719 71.984375 C 146.199219 58.894531 137.378906 52.1875 126.496094 54.734375 C 126.339844 54.578125 126.183594 54.421875 126.023438 54.257812 C 123.273438 51.449219 123.886719 45.382812 120.054688 46.265625 C 116.265625 47.132812 115.871094 55.367188 117.542969 59.519531 C 114.183594 62.871094 112.410156 67.589844 112.410156 73.203125 C 112.410156 75.886719 112.8125 78.769531 113.636719 81.808594 C 117.285156 95.207031 126.441406 101.921875 137.671875 98.867188 C 138.816406 98.558594 139.878906 98.164062 140.875 97.703125 C 141.457031 104.289062 143.339844 109.648438 145.558594 112.8125 C 148.574219 117.113281 198.730469 193.621094 198.730469 193.621094 Z M 179.789062 90.546875 C 173.964844 88.960938 174.574219 82.78125 176.675781 75.042969 C 178.78125 67.300781 181.46875 61.683594 187.214844 63.25 C 192.953125 64.808594 192.433594 71.015625 190.320312 78.753906 C 188.199219 86.574219 185.613281 92.128906 179.789062 90.546875 Z M 124.878906 78.753906 C 124.007812 75.558594 123.40625 72.621094 123.40625 70.167969 C 123.40625 66.679688 124.617188 64.164062 127.988281 63.25 C 133.730469 61.683594 136.417969 67.300781 138.523438 75.042969 C 139.402344 78.265625 140.015625 81.21875 140.015625 83.683594 C 140.015625 87.132812 138.808594 89.621094 135.410156 90.546875 C 129.585938 92.128906 127 86.574219 124.878906 78.753906 Z M 124.878906 78.753906 " fill-opacity="1" fill-rule="nonzero"/></g><g clip-path="url(#52f187c139)"><path fill="#cfbda8" d="M 147.179688 120.613281 C 137.683594 131.410156 126.019531 145.101562 119.058594 156.207031 C 108.253906 173.449219 113.082031 190.292969 116.46875 193.621094 C 116.46875 193.621094 140.015625 157.703125 155.8125 133.703125 C 152.417969 128.550781 149.433594 124.023438 147.179688 120.613281 Z M 147.179688 120.613281 " fill-opacity="1" fill-rule="nonzero"/></g><g fill="#cfbda8" fill-opacity="1"><g transform="translate(205.205515, 192.73981)"><g><path d="M 42.40625 -59.140625 L 42.40625 0 L 11.15625 0 L 11.15625 -144.40625 L 66.734375 -144.40625 C 85.179688 -144.40625 94.40625 -134.582031 94.40625 -114.9375 L 94.40625 -98.203125 C 94.40625 -86.296875 90.164062 -78.707031 81.6875 -75.4375 C 89.125 -72.757812 92.84375 -66.660156 92.84375 -57.140625 L 92.84375 0 L 61.59375 0 L 61.59375 -54.6875 C 61.59375 -57.65625 60.179688 -59.140625 57.359375 -59.140625 Z M 42.40625 -123.203125 L 42.40625 -81.015625 L 58.921875 -81.015625 C 60.109375 -81.015625 61.109375 -81.457031 61.921875 -82.34375 C 62.742188 -83.238281 63.15625 -84.285156 63.15625 -85.484375 L 63.15625 -118.734375 C 63.15625 -119.921875 62.742188 -120.960938 61.921875 -121.859375 C 61.109375 -122.753906 60.109375 -123.203125 58.921875 -123.203125 Z M 42.40625 -123.203125 "/></g></g></g><g fill="#cfbda8" fill-opacity="1"><g transform="translate(312.781357, 192.73981)"><g><path d="M 81.6875 -79.015625 C 91.351562 -75.585938 96.1875 -67.695312 96.1875 -55.34375 L 96.1875 -29.453125 C 96.1875 -9.816406 86.960938 0 68.515625 0 L 11.15625 0 L 11.15625 -144.40625 L 66.734375 -144.40625 C 85.179688 -144.40625 94.40625 -134.582031 94.40625 -114.9375 L 94.40625 -101.78125 C 94.40625 -89.875 90.164062 -82.285156 81.6875 -79.015625 Z M 58.921875 -123.203125 L 42.40625 -123.203125 L 42.40625 -84.59375 L 58.921875 -84.59375 C 60.109375 -84.59375 61.109375 -85.035156 61.921875 -85.921875 C 62.742188 -86.816406 63.15625 -87.859375 63.15625 -89.046875 L 63.15625 -118.734375 C 63.15625 -119.921875 62.742188 -120.960938 61.921875 -121.859375 C 61.109375 -122.753906 60.109375 -123.203125 58.921875 -123.203125 Z M 64.953125 -25.890625 L 64.953125 -58.25 C 64.953125 -59.4375 64.539062 -60.476562 63.71875 -61.375 C 62.90625 -62.269531 61.898438 -62.71875 60.703125 -62.71875 L 42.40625 -62.71875 L 42.40625 -21.421875 L 60.703125 -21.421875 C 61.898438 -21.421875 62.90625 -21.867188 63.71875 -22.765625 C 64.539062 -23.660156 64.953125 -24.703125 64.953125 -25.890625 Z M 64.953125 -25.890625 "/></g></g></g><g fill="#cfbda8" fill-opacity="1"><g transform="translate(423.481808, 192.73981)"><g><path d="M 42.40625 -25.890625 L 77 -25.890625 L 77 0 L 11.15625 0 L 11.15625 -144.40625 L 77 -144.40625 L 77 -118.953125 L 42.40625 -118.953125 L 42.40625 -85.03125 L 74.765625 -85.03125 L 74.765625 -60.484375 L 42.40625 -60.484375 Z M 42.40625 -25.890625 "/></g></g></g><g fill="#cfbda8" fill-opacity="1"><g transform="translate(511.640508, 192.73981)"><g><path d="M 42.40625 -59.140625 L 42.40625 0 L 11.15625 0 L 11.15625 -144.40625 L 66.734375 -144.40625 C 85.179688 -144.40625 94.40625 -134.582031 94.40625 -114.9375 L 94.40625 -98.203125 C 94.40625 -86.296875 90.164062 -78.707031 81.6875 -75.4375 C 89.125 -72.757812 92.84375 -66.660156 92.84375 -57.140625 L 92.84375 0 L 61.59375 0 L 61.59375 -54.6875 C 61.59375 -57.65625 60.179688 -59.140625 57.359375 -59.140625 Z M 42.40625 -123.203125 L 42.40625 -81.015625 L 58.921875 -81.015625 C 60.109375 -81.015625 61.109375 -81.457031 61.921875 -82.34375 C 62.742188 -83.238281 63.15625 -84.285156 63.15625 -85.484375 L 63.15625 -118.734375 C 63.15625 -119.921875 62.742188 -120.960938 61.921875 -121.859375 C 61.109375 -122.753906 60.109375 -123.203125 58.921875 -123.203125 Z M 42.40625 -123.203125 "/></g></g></g><g fill="#cfbda8" fill-opacity="1"><g transform="translate(104.930578, 228.815556)"><g><path d="M 3.015625 0 L 3.015625 -22.171875 L 9.34375 -22.171875 C 11.90625 -22.171875 13.945312 -21.734375 15.46875 -20.859375 C 16.988281 -19.992188 17.75 -18.6875 17.75 -16.9375 C 17.75 -15.707031 17.316406 -14.640625 16.453125 -13.734375 C 15.597656 -12.835938 14.398438 -12.15625 12.859375 -11.6875 C 14.890625 -11.300781 16.421875 -10.613281 17.453125 -9.625 C 18.492188 -8.632812 19.015625 -7.546875 19.015625 -6.359375 C 19.015625 -5.179688 18.710938 -4.171875 18.109375 -3.328125 C 17.515625 -2.492188 16.742188 -1.851562 15.796875 -1.40625 C 13.898438 -0.46875 11.960938 0 9.984375 0 Z M 6.265625 -12.015625 L 8.671875 -12.015625 C 10.703125 -12.015625 12.15625 -12.46875 13.03125 -13.375 C 13.914062 -14.28125 14.359375 -15.414062 14.359375 -16.78125 C 14.359375 -17.695312 14.050781 -18.523438 13.4375 -19.265625 C 12.820312 -20.015625 11.878906 -20.582031 10.609375 -20.96875 C 9.097656 -20.96875 7.648438 -20.742188 6.265625 -20.296875 Z M 6.265625 -11.046875 L 6.265625 -1.5 C 6.972656 -1.28125 8.070312 -1.171875 9.5625 -1.171875 C 11.0625 -1.171875 12.390625 -1.582031 13.546875 -2.40625 C 14.710938 -3.238281 15.296875 -4.390625 15.296875 -5.859375 C 15.296875 -7.328125 14.660156 -8.554688 13.390625 -9.546875 C 12.117188 -10.546875 10.59375 -11.046875 8.8125 -11.046875 Z M 6.265625 -11.046875 "/></g></g></g><g fill="#cfbda8" fill-opacity="1"><g transform="translate(144.471758, 228.815556)"><g><path d="M 0.328125 0 L 10.28125 -22.703125 L 10.78125 -22.703125 L 20.734375 0 L 17.078125 0 L 14.5625 -6.03125 L 4.625 -6.03125 L 2.140625 0 Z M 5.125 -7.296875 L 14.03125 -7.296875 L 9.609375 -18.15625 Z M 5.125 -7.296875 "/></g></g></g><g fill="#cfbda8" fill-opacity="1"><g transform="translate(183.510742, 228.815556)"><g><path d="M 6.296875 -10.578125 L 6.296875 0 L 3.015625 0 L 3.015625 -22.171875 L 10.25 -22.171875 C 12.5 -22.171875 14.34375 -21.664062 15.78125 -20.65625 C 17.226562 -19.65625 17.953125 -18.332031 17.953125 -16.6875 C 17.953125 -15.050781 17.375 -13.757812 16.21875 -12.8125 C 15.070312 -11.863281 13.515625 -11.207031 11.546875 -10.84375 L 20.53125 0 L 16.640625 0.46875 L 8.875 -10.578125 Z M 6.296875 -11.578125 L 8.4375 -11.578125 C 12.457031 -11.578125 14.46875 -13.164062 14.46875 -16.34375 C 14.46875 -16.875 14.332031 -17.476562 14.0625 -18.15625 C 13.550781 -19.5625 12.457031 -20.484375 10.78125 -20.921875 C 9.257812 -20.921875 7.765625 -20.734375 6.296875 -20.359375 Z M 6.296875 -11.578125 "/></g></g></g><g fill="#cfbda8" fill-opacity="1"><g transform="translate(222.85105, 228.815556)"><g><path d="M 3.015625 0 L 3.015625 -22.171875 L 9.34375 -22.171875 C 11.90625 -22.171875 13.945312 -21.734375 15.46875 -20.859375 C 16.988281 -19.992188 17.75 -18.6875 17.75 -16.9375 C 17.75 -15.707031 17.316406 -14.640625 16.453125 -13.734375 C 15.597656 -12.835938 14.398438 -12.15625 12.859375 -11.6875 C 14.890625 -11.300781 16.421875 -10.613281 17.453125 -9.625 C 18.492188 -8.632812 19.015625 -7.546875 19.015625 -6.359375 C 19.015625 -5.179688 18.710938 -4.171875 18.109375 -3.328125 C 17.515625 -2.492188 16.742188 -1.851562 15.796875 -1.40625 C 13.898438 -0.46875 11.960938 0 9.984375 0 Z M 6.265625 -12.015625 L 8.671875 -12.015625 C 10.703125 -12.015625 12.15625 -12.46875 13.03125 -13.375 C 13.914062 -14.28125 14.359375 -15.414062 14.359375 -16.78125 C 14.359375 -17.695312 14.050781 -18.523438 13.4375 -19.265625 C 12.820312 -20.015625 11.878906 -20.582031 10.609375 -20.96875 C 9.097656 -20.96875 7.648438 -20.742188 6.265625 -20.296875 Z M 6.265625 -11.046875 L 6.265625 -1.5 C 6.972656 -1.28125 8.070312 -1.171875 9.5625 -1.171875 C 11.0625 -1.171875 12.390625 -1.582031 13.546875 -2.40625 C 14.710938 -3.238281 15.296875 -4.390625 15.296875 -5.859375 C 15.296875 -7.328125 14.660156 -8.554688 13.390625 -9.546875 C 12.117188 -10.546875 10.59375 -11.046875 8.8125 -11.046875 Z M 6.265625 -11.046875 "/></g></g></g><g fill="#cfbda8" fill-opacity="1"><g transform="translate(262.39223, 228.815556)"><g><path d="M 3.015625 0 L 3.015625 -22.171875 L 16.4375 -22.171875 L 16.109375 -19.921875 L 9.875 -20.96875 C 8.78125 -20.96875 7.578125 -20.773438 6.265625 -20.390625 L 6.265625 -12.25 L 13.6875 -12.25 L 13.6875 -10.984375 L 6.265625 -10.984375 L 6.265625 -1.203125 L 16.640625 -2.25 L 16.3125 0 Z M 3.015625 0 "/></g></g></g><g fill="#cfbda8" fill-opacity="1"><g transform="translate(299.18797, 228.815556)"><g><path d="M 6.296875 -10.578125 L 6.296875 0 L 3.015625 0 L 3.015625 -22.171875 L 10.25 -22.171875 C 12.5 -22.171875 14.34375 -21.664062 15.78125 -20.65625 C 17.226562 -19.65625 17.953125 -18.332031 17.953125 -16.6875 C 17.953125 -15.050781 17.375 -13.757812 16.21875 -12.8125 C 15.070312 -11.863281 13.515625 -11.207031 11.546875 -10.84375 L 20.53125 0 L 16.640625 0.46875 L 8.875 -10.578125 Z M 6.296875 -11.578125 L 8.4375 -11.578125 C 12.457031 -11.578125 14.46875 -13.164062 14.46875 -16.34375 C 14.46875 -16.875 14.332031 -17.476562 14.0625 -18.15625 C 13.550781 -19.5625 12.457031 -20.484375 10.78125 -20.921875 C 9.257812 -20.921875 7.765625 -20.734375 6.296875 -20.359375 Z M 6.296875 -11.578125 "/></g></g></g><g fill="#cfbda8" fill-opacity="1"><g transform="translate(338.528278, 228.815556)"><g/></g></g><g fill="#cfbda8" fill-opacity="1"><g transform="translate(364.87791, 228.815556)"><g><path d="M 5.421875 -18.3125 C 5.421875 -17.332031 5.804688 -16.421875 6.578125 -15.578125 C 7.347656 -14.742188 8.285156 -14.007812 9.390625 -13.375 C 10.492188 -12.738281 11.59375 -12.09375 12.6875 -11.4375 C 13.78125 -10.78125 14.710938 -9.96875 15.484375 -9 C 16.253906 -8.039062 16.640625 -6.984375 16.640625 -5.828125 C 16.640625 -3.992188 15.960938 -2.492188 14.609375 -1.328125 C 13.265625 -0.171875 11.441406 0.40625 9.140625 0.40625 C 6.835938 0.40625 4.5625 -0.03125 2.3125 -0.90625 L 2.3125 -2.484375 C 4.582031 -1.335938 6.515625 -0.765625 8.109375 -0.765625 C 9.710938 -0.765625 10.957031 -1.15625 11.84375 -1.9375 C 12.738281 -2.71875 13.1875 -3.800781 13.1875 -5.1875 C 13.1875 -6.125 12.816406 -6.976562 12.078125 -7.75 C 11.347656 -8.519531 10.457031 -9.1875 9.40625 -9.75 C 8.351562 -10.320312 7.300781 -10.910156 6.25 -11.515625 C 5.207031 -12.117188 4.316406 -12.882812 3.578125 -13.8125 C 2.847656 -14.738281 2.484375 -15.859375 2.484375 -17.171875 C 2.484375 -18.492188 3.066406 -19.722656 4.234375 -20.859375 C 5.410156 -21.992188 7.15625 -22.5625 9.46875 -22.5625 C 10.988281 -22.5625 12.910156 -22.21875 15.234375 -21.53125 L 14.90625 -19.25 C 11.882812 -20.550781 9.304688 -21.203125 7.171875 -21.203125 C 6.003906 -20.640625 5.421875 -19.675781 5.421875 -18.3125 Z M 5.421875 -18.3125 "/></g></g></g><g fill="#cfbda8" fill-opacity="1"><g transform="translate(401.472747, 228.815556)"><g><path d="M 6.265625 -10.984375 L 6.265625 0 L 3.015625 0 L 3.015625 -22.171875 L 6.265625 -22.171875 L 6.265625 -12.25 L 16.40625 -12.25 L 16.40625 -22.171875 L 19.65625 -22.171875 L 19.65625 0 L 16.40625 0 L 16.40625 -10.984375 Z M 6.265625 -10.984375 "/></g></g></g><g fill="#cfbda8" fill-opacity="1"><g transform="translate(442.118802, 228.815556)"><g><path d="M 13.09375 -22.5625 C 16 -22.5625 18.398438 -21.609375 20.296875 -19.703125 C 22.191406 -17.796875 23.140625 -15.144531 23.140625 -11.75 C 23.140625 -9.5625 22.757812 -7.644531 22 -6 C 21.238281 -4.363281 20.242188 -3.097656 19.015625 -2.203125 C 16.628906 -0.460938 13.992188 0.40625 11.109375 0.40625 C 8.234375 0.40625 5.851562 -0.554688 3.96875 -2.484375 C 2.082031 -4.421875 1.140625 -7.085938 1.140625 -10.484375 C 1.140625 -12.242188 1.390625 -13.832031 1.890625 -15.25 C 2.390625 -16.664062 3.046875 -17.820312 3.859375 -18.71875 C 4.679688 -19.613281 5.628906 -20.363281 6.703125 -20.96875 C 8.660156 -22.03125 10.789062 -22.5625 13.09375 -22.5625 Z M 6.359375 -3.8125 C 6.941406 -2.832031 7.722656 -2.066406 8.703125 -1.515625 C 9.679688 -0.972656 10.8125 -0.703125 12.09375 -0.703125 C 13.382812 -0.703125 14.53125 -1.023438 15.53125 -1.671875 C 16.539062 -2.316406 17.320312 -3.164062 17.875 -4.21875 C 19.019531 -6.3125 19.59375 -8.566406 19.59375 -10.984375 C 19.59375 -13.953125 19 -16.34375 17.8125 -18.15625 C 16.5 -20.1875 14.320312 -21.203125 11.28125 -21.203125 C 9.113281 -20.441406 7.472656 -19.132812 6.359375 -17.28125 C 5.242188 -15.425781 4.6875 -13.328125 4.6875 -10.984375 C 4.6875 -8.128906 5.242188 -5.738281 6.359375 -3.8125 Z M 6.359375 -3.8125 "/></g></g></g><g fill="#cfbda8" fill-opacity="1"><g transform="translate(484.371962, 228.815556)"><g><path d="M 17.921875 -16.40625 C 17.921875 -14.257812 17.128906 -12.632812 15.546875 -11.53125 C 13.972656 -10.425781 11.835938 -9.875 9.140625 -9.875 L 6.265625 -9.875 L 6.265625 0 L 3.015625 0 L 3.015625 -22.171875 L 10.21875 -22.171875 C 12.46875 -22.171875 14.3125 -21.65625 15.75 -20.625 C 17.195312 -19.601562 17.921875 -18.195312 17.921875 -16.40625 Z M 6.265625 -10.84375 L 9.234375 -10.84375 C 10.285156 -10.84375 11.1875 -11.039062 11.9375 -11.4375 C 12.6875 -11.84375 13.226562 -12.359375 13.5625 -12.984375 C 14.164062 -14.109375 14.46875 -15.191406 14.46875 -16.234375 C 14.46875 -16.753906 14.332031 -17.367188 14.0625 -18.078125 C 13.53125 -19.554688 12.425781 -20.519531 10.75 -20.96875 C 9.144531 -20.96875 7.648438 -20.773438 6.265625 -20.390625 Z M 6.265625 -10.84375 "/></g></g></g></g></g></svg>